<svg xmlns="http://www.w3.org/2000/svg" xmlns:xlink="http://www.w3.org/1999/xlink" contentStyleType="text/css" data-diagram-type="STATE" height="1838px" preserveAspectRatio="none" style="width:1308px;height:1838px;background:#FFFFFF;" version="1.1" viewBox="0 0 1308 1838" width="1308px" zoomAndPan="magnify"><?plantuml 1.2026.3beta6?><defs/><g><g class="title" data-source-line="11"><text fill="#000000" font-family="sans-serif" font-size="14" font-weight="700" lengthAdjust="spacing" textLength="395.9648" x="452.9613" y="22.9951">Ball &amp; Plate &#8212; PID Simulation : Ball State Machine</text></g><path d="M653.52,124.2969 L771.8511,124.2969 A12.5,12.5 0 0 1 784.3511,136.7969 L784.3511,149.4297 L641.02,149.4297 L641.02,136.7969 A12.5,12.5 0 0 1 653.52,124.2969" fill="#ADD8E6"/><rect fill="none" height="155.3984" rx="12.5" ry="12.5" style="stroke:#00008B;stroke-width:0.5;" width="143.3311" x="641.02" y="124.2969"/><line style="stroke:#00008B;stroke-width:0.5;" x1="641.02" x2="784.3511" y1="149.4297" y2="149.4297"/><text fill="#000000" font-family="sans-serif" font-size="13" lengthAdjust="spacing" textLength="29.3008" x="698.0351" y="141.3638">IDLE</text><g class="entity" data-qualified-name="IDLE.waiting" id="ent0003"><rect fill="#ADD8E6" height="50.2656" rx="12.5" ry="12.5" style="stroke:#00008B;stroke-width:0.5;" width="107.3311" x="653.02" y="216.4297"/><line style="stroke:#00008B;stroke-width:0.5;" x1="653.02" x2="760.3511" y1="241.5625" y2="241.5625"/><text fill="#000000" font-family="sans-serif" font-size="13" lengthAdjust="spacing" textLength="47.4106" x="682.9802" y="233.4966">waiting</text><text fill="#000000" font-family="sans-serif" font-size="13" lengthAdjust="spacing" textLength="87.3311" x="658.02" y="258.6294">No ball exists</text></g><g class="start_entity" data-qualified-name="IDLE..start.IDLE" data-source-line="16" id="ent0004"><ellipse cx="706.69" cy="170.4297" fill="#222222" rx="10" ry="10" style="stroke:#222222;stroke-width:1;"/></g><!--link *start*IDLE to waiting--><g class="link" data-entity-1="ent0004" data-entity-2="ent0003" data-link-type="dependency" data-source-line="16" id="lnk5"><path d="M706.69,180.7597 C706.69,189.7497 706.69,197.7597 706.69,209.9497" fill="none" id="*start*IDLE-to-waiting" style="stroke:#2F4F4F;stroke-width:1;"/><polygon fill="#2F4F4F" points="706.69,215.9497,710.69,206.9497,706.69,210.9497,702.69,206.9497,706.69,215.9497" style="stroke:#2F4F4F;stroke-width:1;"/></g><path d="M333.04,371.6969 L482.3286,371.6969 A12.5,12.5 0 0 1 494.8286,384.1969 L494.8286,396.8297 L320.54,396.8297 L320.54,384.1969 A12.5,12.5 0 0 1 333.04,371.6969" fill="#ADD8E6"/><rect fill="none" height="170.5313" rx="12.5" ry="12.5" style="stroke:#00008B;stroke-width:0.5;" width="174.2886" x="320.54" y="371.6969"/><line style="stroke:#00008B;stroke-width:0.5;" x1="320.54" x2="494.8286" y1="396.8297" y2="396.8297"/><text fill="#000000" font-family="sans-serif" font-size="13" lengthAdjust="spacing" textLength="71.7158" x="371.8264" y="388.7638">DRAGGING</text><g class="entity" data-qualified-name="DRAGGING.holding" id="ent0005"><rect fill="#ADD8E6" height="65.3984" rx="12.5" ry="12.5" style="stroke:#00008B;stroke-width:0.5;" width="138.2886" x="332.54" y="463.8297"/><line style="stroke:#00008B;stroke-width:0.5;" x1="332.54" x2="470.8286" y1="488.9625" y2="488.9625"/><text fill="#000000" font-family="sans-serif" font-size="13" lengthAdjust="spacing" textLength="48.1597" x="377.6045" y="480.8966">holding</text><text fill="#000000" font-family="sans-serif" font-size="13" lengthAdjust="spacing" textLength="118.2886" x="337.54" y="506.0294">Ball follows cursor</text><text fill="#000000" font-family="sans-serif" font-size="13" lengthAdjust="spacing" textLength="111.0332" x="337.54" y="521.1622">vx = vy = vz = 0</text></g><g class="start_entity" data-qualified-name="DRAGGING..start.DRAGGING" data-source-line="21" id="ent0006"><ellipse cx="401.68" cy="417.8297" fill="#222222" rx="10" ry="10" style="stroke:#222222;stroke-width:1;"/></g><!--link *start*DRAGGING to holding--><g class="link" data-entity-1="ent0006" data-entity-2="ent0005" data-link-type="dependency" data-source-line="21" id="lnk7"><path d="M401.68,428.2397 C401.68,437.0397 401.68,444.6997 401.68,457.4197" fill="none" id="*start*DRAGGING-to-holding" style="stroke:#2F4F4F;stroke-width:1;"/><polygon fill="#2F4F4F" points="401.68,463.4197,405.68,454.4197,401.68,458.4197,397.68,454.4197,401.68,463.4197" style="stroke:#2F4F4F;stroke-width:1;"/></g><path d="M286.75,634.2269 L450.6128,634.2269 A12.5,12.5 0 0 1 463.1128,646.7269 L463.1128,659.3597 L274.25,659.3597 L274.25,646.7269 A12.5,12.5 0 0 1 286.75,634.2269" fill="#ADD8E6"/><rect fill="none" height="170.5313" rx="12.5" ry="12.5" style="stroke:#00008B;stroke-width:0.5;" width="188.8628" x="274.25" y="634.2269"/><line style="stroke:#00008B;stroke-width:0.5;" x1="274.25" x2="463.1128" y1="659.3597" y2="659.3597"/><text fill="#000000" font-family="sans-serif" font-size="13" lengthAdjust="spacing" textLength="67.8818" x="334.7405" y="651.2938">AIRBORNE</text><g class="entity" data-qualified-name="AIRBORNE.falling" id="ent0007"><rect fill="#ADD8E6" height="65.3984" rx="12.5" ry="12.5" style="stroke:#00008B;stroke-width:0.5;" width="152.8628" x="286.25" y="726.3597"/><line style="stroke:#00008B;stroke-width:0.5;" x1="286.25" x2="439.1128" y1="751.4925" y2="751.4925"/><text fill="#000000" font-family="sans-serif" font-size="13" lengthAdjust="spacing" textLength="39.8696" x="342.7466" y="743.4266">falling</text><text fill="#000000" font-family="sans-serif" font-size="13" lengthAdjust="spacing" textLength="99.5566" x="291.25" y="768.5594">Gravity applied</text><text fill="#000000" font-family="sans-serif" font-size="13" lengthAdjust="spacing" textLength="132.8628" x="291.25" y="783.6922">ax, ay from plate tilt</text></g><g class="start_entity" data-qualified-name="AIRBORNE..start.AIRBORNE" data-source-line="27" id="ent0008"><ellipse cx="362.68" cy="680.3597" fill="#222222" rx="10" ry="10" style="stroke:#222222;stroke-width:1;"/></g><!--link *start*AIRBORNE to falling--><g class="link" data-entity-1="ent0008" data-entity-2="ent0007" data-link-type="dependency" data-source-line="27" id="lnk9"><path d="M362.68,690.7697 C362.68,699.5697 362.68,707.2297 362.68,719.9497" fill="none" id="*start*AIRBORNE-to-falling" style="stroke:#2F4F4F;stroke-width:1;"/><polygon fill="#2F4F4F" points="362.68,725.9497,366.68,716.9497,362.68,720.9497,358.68,716.9497,362.68,725.9497" style="stroke:#2F4F4F;stroke-width:1;"/></g><path d="M125.42,896.7569 L337.9503,896.7569 A12.5,12.5 0 0 1 350.4503,909.2569 L350.4503,921.8897 L112.92,921.8897 L112.92,909.2569 A12.5,12.5 0 0 1 125.42,896.7569" fill="#ADD8E6"/><rect fill="none" height="170.5313" rx="12.5" ry="12.5" style="stroke:#00008B;stroke-width:0.5;" width="237.5303" x="112.92" y="896.7569"/><line style="stroke:#00008B;stroke-width:0.5;" x1="112.92" x2="350.4503" y1="921.8897" y2="921.8897"/><text fill="#000000" font-family="sans-serif" font-size="13" lengthAdjust="spacing" textLength="71.1001" x="196.1351" y="913.8238">BOUNCING</text><g class="entity" data-qualified-name="BOUNCING.rebound" id="ent0009"><rect fill="#ADD8E6" height="65.3984" rx="12.5" ry="12.5" style="stroke:#00008B;stroke-width:0.5;" width="201.5303" x="124.92" y="988.8897"/><line style="stroke:#00008B;stroke-width:0.5;" x1="124.92" x2="326.4503" y1="1014.0225" y2="1014.0225"/><text fill="#000000" font-family="sans-serif" font-size="13" lengthAdjust="spacing" textLength="54.2788" x="198.5457" y="1005.9566">rebound</text><text fill="#000000" font-family="sans-serif" font-size="13" lengthAdjust="spacing" textLength="153.8101" x="129.92" y="1031.0894">vz = vz &#215; RESTITUTION</text><text fill="#000000" font-family="sans-serif" font-size="13" lengthAdjust="spacing" textLength="181.5303" x="129.92" y="1046.2222">vx, vy &#215; BOUNCE_FRICTION</text></g><g class="start_entity" data-qualified-name="BOUNCING..start.BOUNCING" data-source-line="33" id="ent0010"><ellipse cx="225.69" cy="942.8897" fill="#222222" rx="10" ry="10" style="stroke:#222222;stroke-width:1;"/></g><!--link *start*BOUNCING to rebound--><g class="link" data-entity-1="ent0010" data-entity-2="ent0009" data-link-type="dependency" data-source-line="33" id="lnk11"><path d="M225.69,953.2997 C225.69,962.0997 225.69,969.7597 225.69,982.4797" fill="none" id="*start*BOUNCING-to-rebound" style="stroke:#2F4F4F;stroke-width:1;"/><polygon fill="#2F4F4F" points="225.69,988.4797,229.69,979.4797,225.69,983.4797,221.69,979.4797,225.69,988.4797" style="stroke:#2F4F4F;stroke-width:1;"/></g><path d="M584.46,1159.2969 L802.8999,1159.2969 A12.5,12.5 0 0 1 815.3999,1171.7969 L815.3999,1184.4297 L571.96,1184.4297 L571.96,1171.7969 A12.5,12.5 0 0 1 584.46,1159.2969" fill="#ADD8E6"/><rect fill="none" height="170.5313" rx="12.5" ry="12.5" style="stroke:#00008B;stroke-width:0.5;" width="243.4399" x="571.96" y="1159.2969"/><line style="stroke:#00008B;stroke-width:0.5;" x1="571.96" x2="815.3999" y1="1184.4297" y2="1184.4297"/><text fill="#000000" font-family="sans-serif" font-size="13" lengthAdjust="spacing" textLength="66.5869" x="660.3865" y="1176.3638">ON_PLATE</text><g class="entity" data-qualified-name="ON_PLATE.balancing" id="ent0011"><rect fill="#ADD8E6" height="65.3984" rx="12.5" ry="12.5" style="stroke:#00008B;stroke-width:0.5;" width="207.4399" x="583.96" y="1251.4297"/><line style="stroke:#00008B;stroke-width:0.5;" x1="583.96" x2="791.3999" y1="1276.5625" y2="1276.5625"/><text fill="#000000" font-family="sans-serif" font-size="13" lengthAdjust="spacing" textLength="63.2861" x="656.0369" y="1268.4966">balancing</text><text fill="#000000" font-family="sans-serif" font-size="13" lengthAdjust="spacing" textLength="187.4399" x="588.96" y="1293.6294">PID active (full weight = 1.0)</text><text fill="#000000" font-family="sans-serif" font-size="13" lengthAdjust="spacing" textLength="146.104" x="588.96" y="1308.7622">Rolling friction applied</text></g><g class="start_entity" data-qualified-name="ON_PLATE..start.ON_PLATE" data-source-line="39" id="ent0012"><ellipse cx="687.68" cy="1205.4297" fill="#222222" rx="10" ry="10" style="stroke:#222222;stroke-width:1;"/></g><!--link *start*ON_PLATE to balancing--><g class="link" data-entity-1="ent0012" data-entity-2="ent0011" data-link-type="dependency" data-source-line="39" id="lnk13"><path d="M687.68,1215.8397 C687.68,1224.6397 687.68,1232.2997 687.68,1245.0197" fill="none" id="*start*ON_PLATE-to-balancing" style="stroke:#2F4F4F;stroke-width:1;"/><polygon fill="#2F4F4F" points="687.68,1251.0197,691.68,1242.0197,687.68,1246.0197,683.68,1242.0197,687.68,1251.0197" style="stroke:#2F4F4F;stroke-width:1;"/></g><path d="M803.61,1406.8269 L1001.7565,1406.8269 A12.5,12.5 0 0 1 1014.2565,1419.3269 L1014.2565,1431.9597 L791.11,1431.9597 L791.11,1419.3269 A12.5,12.5 0 0 1 803.61,1406.8269" fill="#ADD8E6"/><rect fill="none" height="170.5313" rx="12.5" ry="12.5" style="stroke:#00008B;stroke-width:0.5;" width="223.1465" x="791.11" y="1406.8269"/><line style="stroke:#00008B;stroke-width:0.5;" x1="791.11" x2="1014.2565" y1="1431.9597" y2="1431.9597"/><text fill="#000000" font-family="sans-serif" font-size="13" lengthAdjust="spacing" textLength="113.5596" x="845.9035" y="1423.8938">ORBIT_TRACKING</text><g class="entity" data-qualified-name="ORBIT_TRACKING.chasing" id="ent0013"><rect fill="#ADD8E6" height="65.3984" rx="12.5" ry="12.5" style="stroke:#00008B;stroke-width:0.5;" width="187.1465" x="803.11" y="1498.9597"/><line style="stroke:#00008B;stroke-width:0.5;" x1="803.11" x2="990.2565" y1="1524.0925" y2="1524.0925"/><text fill="#000000" font-family="sans-serif" font-size="13" lengthAdjust="spacing" textLength="50.229" x="871.5687" y="1516.0266">chasing</text><text fill="#000000" font-family="sans-serif" font-size="13" lengthAdjust="spacing" textLength="150.6426" x="808.11" y="1541.1594">Setpoint orbits in circle</text><text fill="#000000" font-family="sans-serif" font-size="13" lengthAdjust="spacing" textLength="167.1465" x="808.11" y="1556.2922">PID chases moving target</text></g><g class="start_entity" data-qualified-name="ORBIT_TRACKING..start.ORBIT_TRACKING" data-source-line="45" id="ent0014"><ellipse cx="896.68" cy="1452.9597" fill="#222222" rx="10" ry="10" style="stroke:#222222;stroke-width:1;"/></g><!--link *start*ORBIT_TRACKING to chasing--><g class="link" data-entity-1="ent0014" data-entity-2="ent0013" data-link-type="dependency" data-source-line="45" id="lnk15"><path d="M896.68,1463.3697 C896.68,1472.1697 896.68,1479.8297 896.68,1492.5497" fill="none" id="*start*ORBIT_TRACKING-to-chasing" style="stroke:#2F4F4F;stroke-width:1;"/><polygon fill="#2F4F4F" points="896.68,1498.5497,900.68,1489.5497,896.68,1493.5497,892.68,1489.5497,896.68,1498.5497" style="stroke:#2F4F4F;stroke-width:1;"/></g><path d="M848.92,1654.3569 L956.4346,1654.3569 A12.5,12.5 0 0 1 968.9346,1666.8569 L968.9346,1679.4897 L836.42,1679.4897 L836.42,1666.8569 A12.5,12.5 0 0 1 848.92,1654.3569" fill="#ADD8E6"/><rect fill="none" height="170.5313" rx="12.5" ry="12.5" style="stroke:#00008B;stroke-width:0.5;" width="132.5146" x="836.42" y="1654.3569"/><line style="stroke:#00008B;stroke-width:0.5;" x1="836.42" x2="968.9346" y1="1679.4897" y2="1679.4897"/><text fill="#000000" font-family="sans-serif" font-size="13" lengthAdjust="spacing" textLength="37.1274" x="884.1136" y="1671.4238">DEAD</text><g class="entity" data-qualified-name="DEAD.lost" id="ent0015"><rect fill="#ADD8E6" height="65.3984" rx="12.5" ry="12.5" style="stroke:#00008B;stroke-width:0.5;" width="96.5146" x="848.42" y="1746.4897"/><line style="stroke:#00008B;stroke-width:0.5;" x1="848.42" x2="944.9346" y1="1771.6225" y2="1771.6225"/><text fill="#000000" font-family="sans-serif" font-size="13" lengthAdjust="spacing" textLength="23.4355" x="884.9596" y="1763.5566">lost</text><text fill="#000000" font-family="sans-serif" font-size="13" lengthAdjust="spacing" textLength="58.3604" x="853.42" y="1788.6894">drops++</text><text fill="#000000" font-family="sans-serif" font-size="13" lengthAdjust="spacing" textLength="76.5146" x="853.42" y="1803.8222">ball = None</text></g><g class="start_entity" data-qualified-name="DEAD..start.DEAD" data-source-line="51" id="ent0016"><ellipse cx="896.68" cy="1700.4897" fill="#222222" rx="10" ry="10" style="stroke:#222222;stroke-width:1;"/></g><!--link *start*DEAD to lost--><g class="link" data-entity-1="ent0016" data-entity-2="ent0015" data-link-type="dependency" data-source-line="51" id="lnk17"><path d="M896.68,1710.8997 C896.68,1719.6997 896.68,1727.3597 896.68,1740.0797" fill="none" id="*start*DEAD-to-lost" style="stroke:#2F4F4F;stroke-width:1;"/><polygon fill="#2F4F4F" points="896.68,1746.0797,900.68,1737.0797,896.68,1741.0797,892.68,1737.0797,896.68,1746.0797" style="stroke:#2F4F4F;stroke-width:1;"/></g><g class="start_entity" data-qualified-name=".start." data-source-line="13" id="ent0002"><ellipse cx="712.68" cy="53.2969" fill="#222222" rx="10" ry="10" style="stroke:#222222;stroke-width:1;"/></g><!--link *start* to IDLE--><g class="link" data-entity-1="ent0002" data-entity-2="ent0002" data-link-type="dependency" data-source-line="13" id="lnk3"><path d="M712.68,63.4769 C712.68,76.0269 712.68,93.7469 712.68,118.0169" fill="none" id="*start*-to-IDLE" style="stroke:#2F4F4F;stroke-width:1;"/><polygon fill="#2F4F4F" points="712.68,124.0169,716.68,115.0169,712.68,119.0169,708.68,115.0169,712.68,124.0169" style="stroke:#2F4F4F;stroke-width:1;"/></g><!--link IDLE to DRAGGING--><g class="link" data-entity-1="ent0002" data-entity-2="ent0004" data-link-type="dependency" data-source-line="58" id="lnk18"><path d="M640.79,262.6269 C597.2,298.7769 545.8982,341.3264 499.7582,379.5964" fill="none" id="IDLE-to-DRAGGING" style="stroke:#2F4F4F;stroke-width:1;"/><polygon fill="#2F4F4F" points="495.14,383.4269,504.6209,380.76,498.9885,380.2348,499.5136,374.6024,495.14,383.4269" style="stroke:#2F4F4F;stroke-width:1;"/><text fill="#000000" font-family="sans-serif" font-size="13" lengthAdjust="spacing" textLength="60.5566" x="597.8629" y="322.7638">LMB click</text><text fill="#000000" font-family="sans-serif" font-size="13" lengthAdjust="spacing" textLength="96.9224" x="579.68" y="337.8966">(normal mode)</text></g><!--link DRAGGING to IDLE--><g class="link" data-entity-1="ent0004" data-entity-2="ent0002" data-link-type="dependency" data-source-line="82" id="lnk33"><path d="M438.56,371.3769 C449.61,349.2869 463.86,326.8869 481.68,309.6969 C526.11,266.8269 585.1748,240.8549 634.8248,224.3949" fill="none" id="DRAGGING-to-IDLE" style="stroke:#2F4F4F;stroke-width:1;stroke-dasharray:7,7;"/><polygon fill="#2F4F4F" points="640.52,222.5069,630.7185,221.5422,635.774,224.0803,633.2359,229.1358,640.52,222.5069" style="stroke:#2F4F4F;stroke-width:1;"/><text fill="#000000" font-family="sans-serif" font-size="13" lengthAdjust="spacing" textLength="60.2075" x="482.68" y="330.2638">[R] Reset</text></g><!--link IDLE to AIRBORNE--><g class="link" data-entity-1="ent0002" data-entity-2="ent0006" data-link-type="dependency" data-source-line="59" id="lnk19"><path d="M718.69,280.0369 C720.56,353.4669 712.97,464.1269 660.68,542.2269 C613.99,611.9769 535.0153,656.2116 468.8853,683.8716" fill="none" id="IDLE-to-AIRBORNE" style="stroke:#2F4F4F;stroke-width:1;"/><polygon fill="#2F4F4F" points="463.35,686.1869,473.1965,686.4042,467.9628,684.2575,470.1095,679.0238,463.35,686.1869" style="stroke:#2F4F4F;stroke-width:1;"/><text fill="#000000" font-family="sans-serif" font-size="13" lengthAdjust="spacing" textLength="103.3271" x="716.68" y="454.0338">[T] Throw mode</text><text fill="#000000" font-family="sans-serif" font-size="13" lengthAdjust="spacing" textLength="79.1997" x="728.7437" y="469.1666">LMB release</text></g><!--link AIRBORNE to IDLE--><g class="link" data-entity-1="ent0006" data-entity-2="ent0002" data-link-type="dependency" data-source-line="83" id="lnk34"><path d="M295.46,633.8669 C240.71,559.8169 184.22,451.8369 240.68,371.6969 C332.15,241.8669 527.0919,211.7939 634.9319,205.0039" fill="none" id="AIRBORNE-to-IDLE" style="stroke:#2F4F4F;stroke-width:1;stroke-dasharray:7,7;"/><polygon fill="#2F4F4F" points="640.92,204.6269,631.6864,201.2003,635.9299,204.9411,632.1891,209.1845,640.92,204.6269" style="stroke:#2F4F4F;stroke-width:1;"/><text fill="#000000" font-family="sans-serif" font-size="13" lengthAdjust="spacing" textLength="60.2075" x="241.68" y="461.5338">[R] Reset</text></g><!--link DRAGGING to DRAGGING--><g class="link" data-entity-1="ent0004" data-entity-2="ent0004" data-link-type="dependency" data-source-line="61" id="lnk20"><path d="M495.24,432.9269 C515.2,435.0469 529.83,443.0569 529.83,456.9669 C529.83,470.8769 521.1664,478.2532 501.2064,480.3732" fill="none" id="DRAGGING-to-DRAGGING" style="stroke:#2F4F4F;stroke-width:1;"/><polygon fill="#2F4F4F" points="495.24,481.0069,504.6121,484.0339,500.212,480.4788,503.7672,476.0787,495.24,481.0069" style="stroke:#2F4F4F;stroke-width:1;"/><text fill="#000000" font-family="sans-serif" font-size="13" lengthAdjust="spacing" textLength="82.6211" x="553.797" y="454.0338">Mouse move</text><text fill="#000000" font-family="sans-serif" font-size="13" lengthAdjust="spacing" textLength="118.5552" x="535.83" y="469.1666">(update XY and Z)</text></g><!--link DRAGGING to AIRBORNE--><g class="link" data-entity-1="ent0004" data-entity-2="ent0006" data-link-type="dependency" data-source-line="62" id="lnk21"><path d="M395.02,542.5569 C390.64,571.8269 386.618,598.6829 382.238,627.9529" fill="none" id="DRAGGING-to-AIRBORNE" style="stroke:#2F4F4F;stroke-width:1;"/><polygon fill="#2F4F4F" points="381.35,633.8869,386.6379,625.578,382.09,628.9419,378.726,624.394,381.35,633.8869" style="stroke:#2F4F4F;stroke-width:1;"/><text fill="#000000" font-family="sans-serif" font-size="13" lengthAdjust="spacing" textLength="79.1997" x="400.2716" y="585.2938">LMB release</text><text fill="#000000" font-family="sans-serif" font-size="13" lengthAdjust="spacing" textLength="96.3828" x="391.68" y="600.4266">(vx=vy=vz=0)</text></g><!--link AIRBORNE to BOUNCING--><g class="link" data-entity-1="ent0006" data-entity-2="ent0008" data-link-type="dependency" data-source-line="64" id="lnk22"><path d="M273.94,736.7169 C217.3,751.8069 149.73,780.5569 114.68,834.7569 C101.26,855.5169 102.7358,871.8824 116.2058,891.6024" fill="none" id="AIRBORNE-to-BOUNCING" style="stroke:#2F4F4F;stroke-width:1;"/><polygon fill="#2F4F4F" points="119.59,896.5569,117.8167,886.869,116.7698,892.4281,111.2107,891.3813,119.59,896.5569" style="stroke:#2F4F4F;stroke-width:1;"/><text fill="#000000" font-family="sans-serif" font-size="13" lengthAdjust="spacing" textLength="104.9902" x="161.4974" y="847.8238">z &#8804; plate_z AND</text><text fill="#000000" font-family="sans-serif" font-size="13" lengthAdjust="spacing" textLength="196.625" x="115.68" y="862.9566">impact_speed &#8805; MIN_BOUNCE</text></g><!--link BOUNCING to AIRBORNE--><g class="link" data-entity-1="ent0008" data-entity-2="ent0006" data-link-type="dependency" data-source-line="68" id="lnk25"><path d="M298.83,896.4369 C305.28,886.6869 311.38,876.6869 316.68,866.7569 C326.97,847.5069 333.9125,831.4403 341.3825,810.7503" fill="none" id="BOUNCING-to-AIRBORNE" style="stroke:#2F4F4F;stroke-width:1;"/><polygon fill="#2F4F4F" points="343.42,805.1069,336.6014,812.2137,341.7221,809.8097,344.126,814.9304,343.42,805.1069" style="stroke:#2F4F4F;stroke-width:1;"/><text fill="#000000" font-family="sans-serif" font-size="13" lengthAdjust="spacing" textLength="41.9453" x="373.105" y="847.8238">vz &gt; 0</text><text fill="#000000" font-family="sans-serif" font-size="13" lengthAdjust="spacing" textLength="122.7954" x="332.68" y="862.9566">(ball lifts off again)</text></g><!--link AIRBORNE to ON_PLATE--><g class="link" data-entity-1="ent0006" data-entity-2="ent0010" data-link-type="dependency" data-source-line="65" id="lnk23"><path d="M448.19,805.1269 C454.26,814.6369 459.6,824.5869 463.68,834.7569 C502.22,930.9169 432.28,975.1769 479.68,1067.2969 C500.71,1108.1669 531.0856,1139.4039 566.8656,1167.1039" fill="none" id="AIRBORNE-to-ON_PLATE" style="stroke:#2F4F4F;stroke-width:1;"/><polygon fill="#2F4F4F" points="571.61,1170.7769,566.9421,1162.1045,567.6563,1167.7161,562.0448,1168.4303,571.61,1170.7769" style="stroke:#2F4F4F;stroke-width:1;"/><text fill="#000000" font-family="sans-serif" font-size="13" lengthAdjust="spacing" textLength="104.9902" x="526.4974" y="979.0938">z &#8804; plate_z AND</text><text fill="#000000" font-family="sans-serif" font-size="13" lengthAdjust="spacing" textLength="196.625" x="480.68" y="994.2266">impact_speed &lt; MIN_BOUNCE</text></g><!--link ON_PLATE to AIRBORNE--><g class="link" data-entity-1="ent0010" data-entity-2="ent0006" data-link-type="dependency" data-source-line="71" id="lnk27"><path d="M712.61,1158.9269 C724.48,1084.3669 729.64,975.6469 681.68,896.7569 C633.81,818.0269 542.6122,773.4128 469.2422,748.1128" fill="none" id="ON_PLATE-to-AIRBORNE" style="stroke:#2F4F4F;stroke-width:1;"/><polygon fill="#2F4F4F" points="463.57,746.1569,470.7744,752.8723,468.2969,747.7868,473.3823,745.3093,463.57,746.1569" style="stroke:#2F4F4F;stroke-width:1;"/><text fill="#000000" font-family="sans-serif" font-size="13" lengthAdjust="spacing" textLength="95.1831" x="722.68" y="979.0938">vz &gt; threshold</text><text fill="#000000" font-family="sans-serif" font-size="13" lengthAdjust="spacing" textLength="45.0747" x="747.7342" y="994.2266">(re-lift)</text></g><!--link AIRBORNE to DEAD--><g class="link" data-entity-1="ent0006" data-entity-2="ent0014" data-link-type="dependency" data-source-line="66" id="lnk24"><path d="M273.78,738.8169 C215.75,754.7569 144.33,783.6569 99.68,834.7569 C55.34,885.5169 59.68,913.6369 59.68,981.0269 C59.68,981.0269 59.68,981.0269 59.68,1493.0869 C59.68,1654.5769 631.141,1716.4453 830.201,1733.1453" fill="none" id="AIRBORNE-to-DEAD" style="stroke:#2F4F4F;stroke-width:1;"/><polygon fill="#2F4F4F" points="836.18,1733.6469,827.5459,1728.9085,831.1975,1733.2289,826.8771,1736.8805,836.18,1733.6469" style="stroke:#2F4F4F;stroke-width:1;"/><text fill="#000000" font-family="sans-serif" font-size="13" lengthAdjust="spacing" textLength="55.4849" x="78.4915" y="1241.6238">z &lt; -800</text><text fill="#000000" font-family="sans-serif" font-size="13" lengthAdjust="spacing" textLength="91.1079" x="60.68" y="1256.7566">(fell off world)</text></g><!--link BOUNCING to ON_PLATE--><g class="link" data-entity-1="ent0008" data-entity-2="ent0010" data-link-type="dependency" data-source-line="69" id="lnk26"><path d="M211.65,1067.7469 C211.07,1089.6969 215.13,1112.0069 228.68,1129.2969 C270.58,1182.7369 442.4299,1213.7346 565.6199,1229.7246" fill="none" id="BOUNCING-to-ON_PLATE" style="stroke:#2F4F4F;stroke-width:1;"/><polygon fill="#2F4F4F" points="571.57,1230.4969,563.1597,1225.3717,566.6116,1229.8533,562.13,1233.3051,571.57,1230.4969" style="stroke:#2F4F4F;stroke-width:1;"/><text fill="#000000" font-family="sans-serif" font-size="13" lengthAdjust="spacing" textLength="196.625" x="229.68" y="1110.3638">impact_speed &lt; MIN_BOUNCE</text><text fill="#000000" font-family="sans-serif" font-size="13" lengthAdjust="spacing" textLength="126.3882" x="264.7984" y="1125.4966">(energy dissipated)</text></g><!--link ON_PLATE to DEAD--><g class="link" data-entity-1="ent0010" data-entity-2="ent0014" data-link-type="dependency" data-source-line="72" id="lnk28"><path d="M657.28,1330.1369 C632.92,1400.4569 612.18,1501.0269 653.68,1577.3569 C692.06,1647.9369 770.5598,1690.1568 830.3798,1714.1068" fill="none" id="ON_PLATE-to-DEAD" style="stroke:#2F4F4F;stroke-width:1;"/><polygon fill="#2F4F4F" points="835.95,1716.3369,829.0815,1709.2783,831.3082,1714.4785,826.108,1716.7051,835.95,1716.3369" style="stroke:#2F4F4F;stroke-width:1;"/><text fill="#000000" font-family="sans-serif" font-size="13" lengthAdjust="spacing" textLength="118.7266" x="654.68" y="1489.1538">dist &gt; PLATE_SIZE</text><text fill="#000000" font-family="sans-serif" font-size="13" lengthAdjust="spacing" textLength="104.7871" x="661.6497" y="1504.2866">(rolled off edge)</text></g><!--link ON_PLATE to ORBIT_TRACKING--><g class="link" data-entity-1="ent0010" data-entity-2="ent0012" data-link-type="dependency" data-source-line="73" id="lnk29"><path d="M791.41,1330.1669 C800.98,1339.8369 810.25,1349.8169 818.68,1359.8269 C830.79,1374.2069 839.2012,1385.4583 849.8512,1401.4983" fill="none" id="ON_PLATE-to-ORBIT_TRACKING" style="stroke:#2F4F4F;stroke-width:1;"/><polygon fill="#2F4F4F" points="853.17,1406.4969,851.5241,1396.7865,850.4043,1402.3314,844.8594,1401.2117,853.17,1406.4969" style="stroke:#2F4F4F;stroke-width:1;"/><text fill="#000000" font-family="sans-serif" font-size="13" lengthAdjust="spacing" textLength="103.251" x="832.68" y="1372.8938">[O] key pressed</text></g><!--link ORBIT_TRACKING to ON_PLATE--><g class="link" data-entity-1="ent0012" data-entity-2="ent0010" data-link-type="dependency" data-source-line="75" id="lnk30"><path d="M790.96,1421.0969 C781.83,1416.0769 772.67,1411.2569 763.68,1406.8269 C730.74,1390.5769 707.41,1407.1469 686.68,1376.8269 C677.34,1363.1669 673.936,1352.7164 673.726,1336.1464" fill="none" id="ORBIT_TRACKING-to-ON_PLATE" style="stroke:#2F4F4F;stroke-width:1;"/><polygon fill="#2F4F4F" points="673.65,1330.1469,669.7644,1339.1968,673.7134,1335.1465,677.7637,1339.0955,673.65,1330.1469" style="stroke:#2F4F4F;stroke-width:1;"/><text fill="#000000" font-family="sans-serif" font-size="13" lengthAdjust="spacing" textLength="122.5161" x="687.68" y="1372.8938">[O] key toggled off</text></g><!--link ORBIT_TRACKING to DEAD--><g class="link" data-entity-1="ent0012" data-entity-2="ent0014" data-link-type="dependency" data-source-line="76" id="lnk31"><path d="M902.68,1577.5869 C902.68,1602.2769 902.68,1623.2669 902.68,1647.9669" fill="none" id="ORBIT_TRACKING-to-DEAD" style="stroke:#2F4F4F;stroke-width:1;"/><polygon fill="#2F4F4F" points="902.68,1653.9669,906.68,1644.9669,902.68,1648.9669,898.68,1644.9669,902.68,1653.9669" style="stroke:#2F4F4F;stroke-width:1;"/><text fill="#000000" font-family="sans-serif" font-size="13" lengthAdjust="spacing" textLength="118.7266" x="903.68" y="1620.4238">dist &gt; PLATE_SIZE</text></g><!--link DEAD to IDLE--><g class="link" data-entity-1="ent0014" data-entity-2="ent0002" data-link-type="dependency" data-source-line="78" id="lnk32"><path d="M969.18,1690.8069 C991.28,1672.1769 1014.37,1649.2869 1030.68,1624.3569 C1064.29,1572.9769 1073.68,1554.4769 1073.68,1493.0869 C1073.68,455.9669 1073.68,455.9669 1073.68,455.9669 C1073.68,316.1069 895.5072,248.5636 790.2272,220.4736" fill="none" id="DEAD-to-IDLE" style="stroke:#2F4F4F;stroke-width:1;"/><polygon fill="#2F4F4F" points="784.43,218.9269,792.0946,225.1118,789.261,220.2158,794.157,217.3822,784.43,218.9269" style="stroke:#2F4F4F;stroke-width:1;"/><text fill="#000000" font-family="sans-serif" font-size="13" lengthAdjust="spacing" textLength="68.085" x="1083.9666" y="979.0938">Auto-reset</text><text fill="#000000" font-family="sans-serif" font-size="13" lengthAdjust="spacing" textLength="86.6582" x="1074.68" y="994.2266">(ball = None)</text></g><!--link DEAD to IDLE--><g class="link" data-entity-1="ent0014" data-entity-2="ent0002" data-link-type="dependency" data-source-line="87" id="lnk38"><path d="M969.26,1721.4469 C1065.39,1692.1769 1231.68,1622.8069 1231.68,1493.0869 C1231.68,455.9669 1231.68,455.9669 1231.68,455.9669 C1231.68,259.4969 933.4359,215.9978 790.8359,206.2078" fill="none" id="DEAD-to-IDLE-1" style="stroke:#2F4F4F;stroke-width:1;stroke-dasharray:7,7;"/><polygon fill="#2F4F4F" points="784.85,205.7969,793.5549,210.4039,789.8383,206.1393,794.1028,202.4227,784.85,205.7969" style="stroke:#2F4F4F;stroke-width:1;"/><text fill="#000000" font-family="sans-serif" font-size="13" lengthAdjust="spacing" textLength="60.2075" x="1232.68" y="986.5938">[R] Reset</text></g><!--link ON_PLATE to IDLE--><g class="link" data-entity-1="ent0010" data-entity-2="ent0002" data-link-type="dependency" data-source-line="84" id="lnk35"><path d="M788.4,1158.9769 C830.48,1112.0369 870.68,1049.7369 870.68,983.0269 C870.68,455.9669 870.68,455.9669 870.68,455.9669 C870.68,385.8069 830.3862,323.549 788.7162,276.249" fill="none" id="ON_PLATE-to-IDLE" style="stroke:#2F4F4F;stroke-width:1;stroke-dasharray:7,7;"/><polygon fill="#2F4F4F" points="784.75,271.7469,787.6979,281.1442,788.0552,275.4986,793.7008,275.8559,784.75,271.7469" style="stroke:#2F4F4F;stroke-width:1;"/><text fill="#000000" font-family="sans-serif" font-size="13" lengthAdjust="spacing" textLength="60.2075" x="871.68" y="724.0638">[R] Reset</text></g><!--link BOUNCING to IDLE--><g class="link" data-entity-1="ent0008" data-entity-2="ent0002" data-link-type="dependency" data-source-line="85" id="lnk36"><path d="M117.96,896.3569 C110.74,887.1169 104.47,877.2369 99.68,866.7569 C6,661.7569 108.5,573.1069 209.68,371.6969 C225.83,339.5669 231.07,328.5769 261.68,309.6969 C381.02,236.1069 540.8671,213.7194 634.6071,206.6294" fill="none" id="BOUNCING-to-IDLE" style="stroke:#2F4F4F;stroke-width:1;stroke-dasharray:7,7;"/><polygon fill="#2F4F4F" points="640.59,206.1769,631.314,202.867,635.6042,206.554,631.9173,210.8443,640.59,206.1769" style="stroke:#2F4F4F;stroke-width:1;"/><text fill="#000000" font-family="sans-serif" font-size="13" lengthAdjust="spacing" textLength="60.2075" x="101.68" y="592.7938">[R] Reset</text></g><!--link ORBIT_TRACKING to IDLE--><g class="link" data-entity-1="ent0012" data-entity-2="ent0002" data-link-type="dependency" data-source-line="86" id="lnk37"><path d="M946.37,1406.5169 C966.36,1360.2269 985.68,1301.1269 985.68,1245.5569 C985.68,455.9669 985.68,455.9669 985.68,455.9669 C985.68,346.2769 871.0704,273.4097 790.1904,235.0197" fill="none" id="ORBIT_TRACKING-to-IDLE" style="stroke:#2F4F4F;stroke-width:1;stroke-dasharray:7,7;"/><polygon fill="#2F4F4F" points="784.77,232.4469,791.1854,239.9197,789.287,234.5909,794.6158,232.6925,784.77,232.4469" style="stroke:#2F4F4F;stroke-width:1;"/><text fill="#000000" font-family="sans-serif" font-size="13" lengthAdjust="spacing" textLength="60.2075" x="986.68" y="855.3238">[R] Reset</text></g><?plantuml-src lLNDRjD04BxxAUO43IMeY0kAIAMaIIEB9gcSL43RADhQQtkLZTVQtVmYf5wvL-85u4buapu9ixRZsAOjNC2odFNEp3VVp7xZg1cBOYB979Gcci9d2w1Dt5aWnIBoJWGN4ivO4EesNr1Z4zAZCjtl43dBjaz5f4TiI-7r6tnhIIbMUvyHH-IU91lhYsMfFE5D9Ss7a6bQiAkGU6B5eW1ymXMrBCqqfyYEStW6vmOKxc_luDpkm8ZD5xZ1H0IDr6EKbDCdRiWYZBrwCO5w_HZipbaNIIH6iquAtXbNX6dCXplP2i460eaY7bqpfLLIGHBSSLgzdZtebG12mRqK85ljsFY2Sx5Iu2wa4h9aNwwX2SkDUMpnSRHFqRATzj0Pb3bYBtYQ8biX1FPsoVG6I1npHhsIZQnV0jc0ByKSugHdcd6zJz8UNWnEgdL8UcFE1NUobU6vJId-_0PETpIsnnTZUpWeks0kh0Gz4jJkzDInJnAlFDrmC3q_QutBDM63IUIcLULhn3CdIrpDbXGE_0MsSKMD5977wrT7jOgp8zAIVSdSH0YxRknpEsrxF1qxhPFtrOBTaAWqVxP2m17LiM2H1Y5lc5R08d2PT3ajUHcEveqgc8kbsTD41hJGuKwtrIabuq9fV3K_2E194Ql3m_r68hSc2WzrYo3FuVxk5c_KCZBGaaIAcVfKjl-lRyjAviGGppMVNWquwxV1vSoTNKS7aP1pmh497gtjGt8DxqAknXCOX_XzI3ol8mCXAQV4J7YUe9Aj0NsnKDHq64CE5h5d6lln4n3KtMMj75T8cJBCu35mkMukDytbjedgiN8_4vIFWGdQmltNx-cqJBVG6dIk8pQFKObJ5LFgeVK7zEt1D5Lv6IWN-Dy0lNiK9X7DhcTRTAo_FJh22doAuX2-3oiXkOTLvCH_AnrdzHXCJ28epdpKi8aa0GgfLWuiiNwK8cBHYCfW0nvJYiLObg6G1pzCGOUIAlEzmt19wuP8hHnJAXQXDKObrkd8lZHP9SusSZ7igHVGIdXbhb5ZmmdCw0PYJApm2s1LF4eLxzsr288ipKCHESi7EA9qZNNt3mFxgm6jXHPrP4BrxYpIuQuLPhl71LeWyVfFSrsUyU9erwyyeaBgJNRLO8kS2JY6d5KSw2ST2v9wsh4mUdz0h9p9Kxu5IJtf-0i0?></g></svg>